<svg xmlns="http://www.w3.org/2000/svg" xmlns:xlink="http://www.w3.org/1999/xlink" version="1.1" baseProfile="full" viewBox="0 0 200 200" width="200" height="200">
<g fill="black">
<path d="M 60.1 142.5 L 59.6 148.4 L 140.5 148.4 L 140.5 128.7 L 60.1 128.7 Z M 85.6 62.1 L 84.8 60 L 84 58 L 82 53.8 L 80.8 51.6 L 79.6 49.5 L 78.3 47.3 L 76.9 45 L 75.1 43.1 L 76.3 41.7 L 78.5 43.2 L 81 44.5 L 83.3 45.9 L 85.5 47.4 L 87.6 49 L 89.6 50.7 L 91.6 52.5 L 93.4 54.4 L 96.8 58.4 L 97.2 63 L 96.2 64.3 L 103.3 65.4 L 104.1 64.1 L 105.8 61.3 L 107.5 58.6 L 110.7 53.2 L 112.3 50.6 L 116 43.7 L 115.9 43.6 L 116.9 42.1 L 126.3 49.7 L 127.6 53 L 123.5 52.7 L 119.7 56.5 L 117.4 58.7 L 115 60.8 L 112.5 62.9 L 109.9 65 L 107.4 66.8 L 109 67.9 L 106 69.7 L 106 102.6 L 94 108.6 L 94 66.6 L 89.8 67 L 86.2 64.1 Z M 170.4 104.5 L 166.6 100.9 L 163.1 96.9 L 160.1 92.4 L 157.5 87.6 L 155.9 88.4 L 151.5 90.5 L 147.1 92.5 L 138.3 96.1 L 133.9 97.8 L 129.5 99.3 L 125.1 100.9 L 120.4 102.4 L 119 106.2 L 116.3 103.7 L 116.1 102.9 L 116.1 102.8 L 116 102.6 L 115.7 101.4 L 115.6 100.9 L 115.4 100 L 115.3 99.7 L 115.3 99.4 L 115.2 99.3 L 115.1 98.9 L 115.1 98.7 L 114.9 97.8 L 114.7 97 L 114.7 96.9 L 114.6 96.6 L 114.5 96.4 L 114.5 96.1 L 114.4 95.8 L 114.4 95.7 L 114.2 94.9 L 114 94.3 L 114 94 L 113.9 93.9 L 113.9 93.8 L 113.8 93.5 L 113.7 93.1 L 113.7 93 L 113.6 92.7 L 113.6 92.4 L 113.5 92.1 L 118 91.3 L 122.4 90.5 L 125 90 L 125 53.2 L 135.4 58.4 L 139.3 56.6 L 143.5 54.9 L 147.5 53.3 L 151.4 51.8 L 155.2 50.3 L 158.9 48.8 L 162.5 47.4 L 165.9 46 L 168.3 45 L 168.3 44.9 L 168.4 45 L 169.2 44.6 L 169.7 46 L 179.2 54.1 L 179.4 57.2 L 175.2 55.3 L 172.8 56.1 L 165.4 57.5 L 161.6 58.2 L 157.6 58.9 L 153.9 59.5 L 155.5 63.5 L 157.8 69.1 L 160.3 74.2 L 162.8 78.8 L 165.5 82.9 L 168.4 86.4 L 171.4 89.5 L 174.5 92.1 L 177.7 94.3 L 181.2 96.1 L 186 98.7 L 174.7 107.6 Z M 62.8 88.4 L 73.6 93.5 L 72.5 95.7 L 71.1 97.8 L 69.5 99.7 L 67.7 101.4 L 65.7 102.8 L 63.6 104 L 61.3 104.9 L 58.9 105.5 L 56.5 105.9 L 54 106 L 54 100 L 38 97 L 38 94 L 54 94 L 55.3 93.9 L 56.5 93.8 L 57.6 93.5 L 58.5 93.1 L 59.3 92.7 L 60.1 92.1 L 60.8 91.4 L 61.5 90.6 L 62.2 89.6 Z M 71.3 92.4 L 70.6 92.1 L 69.2 91.4 L 68.9 91.3 L 67.5 90.6 L 67.2 90.5 L 65.6 89.7 L 65.3 89.6 L 64.1 89 L 62.8 88.4 L 63 87.8 L 63.3 86.5 L 63.7 84.6 L 64 82.2 L 64.3 79.2 L 64.5 75.8 L 64.7 71.9 L 64.8 67.5 L 64.9 62.7 L 65 59.5 L 51.8 59.5 L 51.5 64 L 50.2 70.5 L 48.1 76.5 L 45.3 82.1 L 41.7 87.2 L 37.3 91.8 L 32.3 95.8 L 26.6 99.3 L 20.3 102.2 L 13.3 104.5 L 12.6 102.9 L 18.5 98.9 L 23.7 94.9 L 28.1 90.8 L 31.8 86.6 L 34.7 82.3 L 37 77.8 L 38.7 73.1 L 39.7 68.2 L 40.1 63.1 L 40 59.5 L 22 59.5 L 22 55.5 L 65 55.5 L 71 50.5 L 82 59.5 L 77 62.5 L 76.9 62.5 L 76.9 62.8 L 76.8 67.8 L 76.7 72.4 L 76.5 76.5 L 76.2 80.2 L 75.9 83.5 L 75.5 86.4 L 75.1 89 L 74.5 91.4 L 73.6 93.5 L 72.8 93.1 L 72.5 93 Z M 113.5 92.1 L 116.3 103.7 L 111.6 92.6 Z M 151.3 59.9 L 149.3 60.2 L 145 60.8 L 140.5 61.3 L 137 61.5 L 137 87.9 L 140.7 87.2 L 145.3 86.4 L 150 85.6 L 154.8 85 L 156.3 84.8 L 155.3 82.3 L 153.5 76.7 L 152.2 70.8 L 151.4 64.4 Z M 19.2 41.3 L 19.2 37.3 L 94 37.3 L 94 13.5 L 106 15.5 L 109 17.5 L 106 19.3 L 106 37.3 L 158.7 37.3 L 168.7 27.3 L 180.7 37.3 L 180.7 41.3 Z M 48.1 142.5 L 48.1 109 L 60.1 111 L 63.1 113 L 60.1 114.8 L 60.1 124.7 L 140.5 124.7 L 140.5 109 L 152.5 111 L 155.5 113 L 152.5 114.8 L 152.5 182.6 L 140.5 188.6 L 140.5 152.4 L 59 152.4 L 58.3 156.3 L 56.4 162.5 L 53.8 168.1 L 50.6 173.2 L 46.8 177.6 L 42.4 181.4 L 37.5 184.4 L 32 186.7 L 26.1 188.2 L 25.4 186.5 L 30.3 183.3 L 34.5 180 L 38 176.5 L 41 172.7 L 43.4 168.6 L 45.4 164.2 L 46.8 159.5 L 47.7 154.3 L 48.2 148.6 Z " />
</g>
</svg>
