<svg xmlns="http://www.w3.org/2000/svg" xmlns:xlink="http://www.w3.org/1999/xlink" version="1.1" baseProfile="full" viewBox="0 0 200 200" width="200" height="200">
<g fill="black">
<path d="M 59.3 142.5 L 58.7 148.4 L 141.6 148.4 L 141.6 128.7 L 59.3 128.7 Z M 72.8 91.7 L 72.5 91.6 L 71.9 91.3 L 70.6 90.7 L 69.2 90 L 68.7 89.8 L 67.5 89.2 L 67 89 L 65.6 88.3 L 65.3 88.2 L 64.1 87.6 L 63.6 87.4 L 62.8 87 L 63 86.4 L 63.3 85.1 L 63.7 83.2 L 64 80.8 L 64.3 77.9 L 64.5 74.6 L 64.7 70.8 L 64.8 66.5 L 64.9 61.9 L 65 58.8 L 51.6 58.8 L 50.9 63.7 L 49.2 70.1 L 46.8 76.2 L 43.9 82 L 40.3 87.6 L 36.1 92.9 L 31.4 97.8 L 26 102.4 L 20.1 106.7 L 13.5 110.5 L 12.4 109 L 17.7 103.7 L 22.3 98.6 L 26.5 93.4 L 30.1 88.3 L 33.1 83.1 L 35.5 77.9 L 37.4 72.6 L 38.8 67.3 L 39.6 61.9 L 39.8 58.8 L 24 58.8 L 24 54.8 L 65 54.8 L 71 49.8 L 82 58.8 L 77 61.8 L 76.9 61.8 L 76.9 62 L 76.8 66.8 L 76.7 71.3 L 76.5 75.3 L 76.2 78.9 L 75.9 82.2 L 75.5 85.1 L 75.1 87.7 L 74.5 90 L 73.6 92.1 Z M 169 27.1 L 181 37.1 L 181 41.1 L 118.3 41.1 L 126.8 49.4 L 127.7 52.9 L 123.5 52.1 L 122.2 53.2 L 119.7 55.1 L 117.3 56.9 L 114.7 58.8 L 109.3 62.4 L 106.4 64.1 L 104.8 65 L 106 65.2 L 109 67.2 L 106 69 L 106 102.1 L 94 108.1 L 94 63.2 L 101 64.4 L 101.6 63.7 L 105.6 58.3 L 109.4 53.3 L 111.2 50.8 L 113 48.4 L 114.6 46 L 116.3 43.7 L 117.3 42.2 L 117.1 42.1 L 118.1 41.1 L 19 41.1 L 19 37.1 L 159 37.1 Z M 170.4 104 L 166.5 100.4 L 163 96.4 L 159.8 92 L 157 87.1 L 156.8 86.7 L 155.5 87.4 L 152.1 89.5 L 148.8 91.4 L 145.7 93.1 L 142.8 94.8 L 140.1 96.3 L 137.5 97.7 L 135.2 99 L 133 100.3 L 131.9 100.9 L 127 105.8 L 117 95.8 L 123 89.8 L 123 52.5 L 133.2 57.6 L 133.3 57.6 L 137.8 55.8 L 142.2 54 L 146.6 52.3 L 150.9 50.7 L 155.1 49.1 L 159.3 47.6 L 163.3 46 L 167.3 44.5 L 170.3 43.3 L 170.3 43.2 L 170.4 43.2 L 171.2 42.9 L 171.7 44.4 L 181.1 52.4 L 181.4 55.5 L 177.2 53.6 L 174.8 54.4 L 170.6 55.3 L 162 57.1 L 153 58.7 L 152.1 58.9 L 153.9 62.7 L 156.6 68.3 L 159.3 73.4 L 162.1 78.1 L 165 82.2 L 168 85.8 L 171.1 89 L 174.4 91.6 L 177.7 93.8 L 181.2 95.6 L 185.9 98.3 L 174.7 107.2 Z M 62.8 87 L 73.6 92.1 L 72.5 94.3 L 71.1 96.4 L 69.5 98.3 L 67.7 100 L 65.7 101.4 L 63.6 102.6 L 61.3 103.5 L 58.9 104.1 L 56.5 104.5 L 54 104.6 L 54 98.6 L 38 95.6 L 38 92.6 L 54 92.6 L 55.3 92.5 L 56.5 92.4 L 57.6 92.1 L 58.5 91.7 L 59.3 91.3 L 60.1 90.7 L 60.8 90 L 61.5 89.2 L 62.1 88.2 Z M 149.5 59.3 L 148.4 59.5 L 143.8 60.1 L 139 60.7 L 135 60.9 L 135 88.6 L 137 88.2 L 140.1 87.6 L 143.4 86.9 L 146.9 86.2 L 150.6 85.5 L 154.6 84.8 L 155.8 84.5 L 154.6 81.9 L 152.6 76.3 L 151 70.3 L 149.8 63.8 Z M 86.9 58.6 L 86.4 57.1 L 85.7 55.6 L 84.9 54 L 83.9 52.4 L 82.8 50.8 L 81.5 49.1 L 80 47.3 L 78.4 45.5 L 76.4 44.1 L 77.3 42.5 L 79.6 43.5 L 82 44.2 L 84.3 45 L 86.6 46 L 88.7 47 L 90.7 48.2 L 92.6 49.4 L 94.4 50.8 L 96 52.3 L 97.6 53.9 L 98.2 58.5 L 95.5 62.1 L 90.9 62.7 L 87.3 60 Z M 96.7 29.5 L 95.9 27.8 L 95 26 L 93.7 24.2 L 92.3 22.4 L 90.6 20.6 L 88.7 18.7 L 86.6 16.8 L 84.3 14.9 L 81.5 13.3 L 82.2 11.7 L 85.3 12.6 L 88.4 13.3 L 91.4 14.2 L 94.2 15.3 L 96.8 16.5 L 99.3 17.9 L 101.6 19.4 L 103.8 21.1 L 105.8 23 L 107.6 25.1 L 108.2 29.6 L 105.5 33.3 L 100.9 33.9 L 97.3 31.1 Z M 47.3 142.5 L 47.3 109 L 59.3 111 L 62.3 113 L 59.3 114.8 L 59.3 124.7 L 141.6 124.7 L 141.6 109 L 153.6 111 L 156.6 113 L 153.6 114.8 L 153.6 182.6 L 141.6 188.6 L 141.6 152.4 L 57.9 152.4 L 56.8 156.7 L 54.2 163 L 50.6 168.7 L 46.2 173.8 L 40.9 178.1 L 34.9 181.7 L 28.2 184.6 L 20.7 186.8 L 12.5 188.3 L 12.1 186.5 L 19.5 183.2 L 25.9 179.8 L 31.5 176.1 L 36.1 172.2 L 39.9 168 L 42.9 163.6 L 45 158.9 L 46.5 153.9 L 47.2 148.4 Z " />
</g>
</svg>
