<svg xmlns="http://www.w3.org/2000/svg" xmlns:xlink="http://www.w3.org/1999/xlink" version="1.1" baseProfile="full" viewBox="0 0 200 200" width="200" height="200">
<g fill="black">
<path d="M 140.5 188.6 L 140.5 152.4 L 59 152.4 L 58.3 156.3 L 56.4 162.5 L 53.8 168.1 L 50.6 173.2 L 46.8 177.6 L 42.4 181.4 L 37.5 184.4 L 32 186.7 L 26.1 188.2 L 25.4 186.5 L 30.3 183.3 L 34.5 180 L 38 176.5 L 41 172.7 L 43.4 168.6 L 45.4 164.2 L 46.8 159.5 L 47.7 154.3 L 48.2 148.6 L 48.1 142.5 L 48.1 109 L 60.1 111 L 63.1 113 L 60.1 114.8 L 60.1 124.7 L 140.5 124.7 L 140.5 109 L 152.5 111 L 155.5 113 L 152.5 114.8 L 152.5 182.6 Z M 13.5 110.5 L 12.4 109 L 17.7 103.7 L 22.3 98.6 L 26.5 93.4 L 30.1 88.3 L 33.1 83.1 L 35.5 77.9 L 37.4 72.6 L 38.8 67.3 L 39.6 61.9 L 39.8 58.8 L 24 58.8 L 24 54.8 L 65 54.8 L 71 49.8 L 82 58.8 L 77 61.8 L 76.9 61.8 L 76.9 62 L 76.8 66.8 L 76.7 71.3 L 76.5 75.3 L 76.2 78.9 L 75.9 82.2 L 75.5 85.1 L 75.1 87.7 L 74.5 90 L 73.6 92.1 L 72.5 94.3 L 71.1 96.4 L 69.5 98.3 L 67.7 100 L 65.7 101.4 L 63.6 102.6 L 61.3 103.5 L 58.9 104.1 L 56.5 104.5 L 54 104.6 L 54 98.6 L 38 95.6 L 38 92.6 L 54 92.6 L 55.3 92.5 L 56.5 92.4 L 57.6 92.1 L 58.5 91.7 L 59.3 91.3 L 60.1 90.7 L 60.8 90 L 61.5 89.2 L 62.1 88.2 L 62.8 87 L 63 86.4 L 63.3 85.1 L 63.7 83.2 L 64 80.8 L 64.3 77.9 L 64.5 74.6 L 64.7 70.8 L 64.8 66.5 L 64.9 61.9 L 65 58.8 L 51.6 58.8 L 50.9 63.7 L 49.2 70.1 L 46.8 76.2 L 43.9 82 L 40.3 87.6 L 36.1 92.9 L 31.4 97.8 L 26 102.4 L 20.1 106.7 Z M 94 108.1 L 94 66 L 92.5 66 L 89.3 62.8 L 89 61.3 L 88.6 59.6 L 87.9 57.9 L 87 56.1 L 85.8 54.2 L 84.4 52.2 L 82.8 50.2 L 81 48.1 L 78.9 45.9 L 76.4 44.1 L 77.3 42.5 L 80.2 43.9 L 83.2 44.9 L 85.9 46.1 L 88.5 47.4 L 90.9 48.9 L 93.2 50.4 L 95.3 52.2 L 97.1 54 L 98.8 56 L 100.3 58.2 L 100.3 62.8 L 99.1 64 L 101 64.4 L 101.6 63.7 L 105.6 58.3 L 109.4 53.3 L 111.2 50.8 L 113 48.4 L 114.6 46 L 116.3 43.7 L 117.3 42.2 L 117.1 42.1 L 118.1 41.1 L 19 41.1 L 19 37.1 L 99.8 37.1 L 97.3 34.4 L 97 32.5 L 96.4 30.5 L 95.6 28.5 L 94.5 26.4 L 93.1 24.2 L 91.4 22.1 L 89.4 19.9 L 87.1 17.6 L 84.5 15.3 L 81.5 13.3 L 82.2 11.7 L 85.7 13 L 89.2 14.1 L 92.5 15.5 L 95.5 17 L 98.3 18.8 L 100.9 20.7 L 103.2 22.9 L 105.3 25.2 L 107.1 27.8 L 108.7 30.6 L 108.3 35.2 L 106.1 37.1 L 159 37.1 L 169 27.1 L 181 37.1 L 181 41.1 L 118.3 41.1 L 126.8 49.4 L 127.7 52.9 L 123.5 52.1 L 122.2 53.2 L 119.7 55.1 L 117.3 56.9 L 114.7 58.8 L 109.3 62.4 L 106.4 64.1 L 104.8 65 L 106 65.2 L 109 67.2 L 106 69 L 106 102.1 Z M 174.3 106.9 L 170.9 104 L 167.6 100.8 L 164.6 97.4 L 161.9 93.8 L 159.4 89.9 L 157.2 85.8 L 155.3 81.5 L 153.7 77 L 152.4 72.2 L 151.5 67.3 L 153.1 66.7 L 155.8 70.8 L 158.5 74.6 L 161.2 78.2 L 163.9 81.5 L 166.6 84.5 L 169.5 87.3 L 172.4 89.8 L 175.3 92.1 L 178.4 94.1 L 181.6 95.9 L 185.4 98.4 Z M 129.5 105.4 L 126.7 103.1 L 121.2 92.2 L 123 91.6 L 123 52.5 L 133.2 57.6 L 133.3 57.6 L 137.8 55.8 L 142.2 54 L 146.6 52.3 L 150.9 50.7 L 155.1 49.1 L 159.3 47.6 L 163.3 46 L 167.3 44.5 L 170.3 43.3 L 170.3 43.2 L 170.4 43.2 L 171.2 42.9 L 171.7 44.4 L 181.1 52.4 L 181.4 55.5 L 177.2 53.6 L 174.8 54.4 L 170.6 55.3 L 162 57.1 L 153 58.7 L 148.4 59.5 L 143.8 60.1 L 139 60.7 L 135 60.9 L 135 89.8 L 135.3 89.7 L 138 89.2 L 140.8 88.6 L 143.7 88.1 L 146.7 87.6 L 149.6 86.6 L 150.3 88.3 L 147.7 89.8 L 145.3 91.7 L 142.8 93.5 L 140.4 95.1 L 138.1 96.6 L 135.7 98.1 L 133.4 99.5 L 131.1 100.7 L 130.8 100.9 Z M 59.6 148.4 L 140.5 148.4 L 140.5 128.7 L 60.1 128.7 L 60.1 142.5 Z " />
</g>
</svg>
