<svg xmlns="http://www.w3.org/2000/svg" xmlns:xlink="http://www.w3.org/1999/xlink" version="1.1" baseProfile="full" viewBox="0 0 200 200" width="200" height="200">
<g fill="black">
<path d="M 140.7 188.7 L 140.7 182.7 L 120.7 179.7 L 120.7 176.7 L 140.7 176.7 L 141.9 176.6 L 142.8 176.4 L 143.4 176.2 L 143.8 176.1 L 143.9 175.9 L 144.1 175.7 L 144.3 175.4 L 144.5 174.8 L 144.6 173.9 L 144.7 172.7 L 144.7 154.1 L 53.4 154.1 L 53.2 155.4 L 51.1 161.7 L 48.4 167.5 L 44.9 172.7 L 40.8 177.2 L 36 181 L 30.7 184.1 L 24.7 186.5 L 18.3 188 L 17.7 186.3 L 23.1 183 L 27.8 179.6 L 31.8 176 L 35.2 172.1 L 37.9 167.9 L 40 163.4 L 41.6 158.5 L 42.7 153.2 L 43.2 147.5 L 43.2 107 L 55.2 109 L 58.2 111 L 55.2 112.8 L 55.2 123.1 L 144.7 123.1 L 144.7 107 L 156.7 109 L 159.7 111 L 156.7 112.8 L 156.7 172.7 L 156.5 175.2 L 156.1 177.7 L 155.3 180.1 L 154.1 182.4 L 152.4 184.4 L 150.4 186 L 148.1 187.3 L 145.7 188.1 L 143.2 188.5 Z M 94.5 110.5 L 94.5 66.9 L 90.3 67.3 L 86.7 64.4 L 86 62.3 L 85.2 60.1 L 84.4 58 L 83.4 55.8 L 81.2 51.4 L 79.9 49.2 L 77.3 44.6 L 75.5 42.6 L 76.7 41.2 L 78.9 42.8 L 81.4 44.2 L 83.7 45.6 L 86 47.3 L 88.1 49 L 90.1 50.8 L 92.1 52.7 L 93.9 54.6 L 95.7 56.7 L 97.3 58.8 L 97.7 63.4 L 96.7 64.6 L 103.9 65.8 L 104.6 64.6 L 108 58.8 L 109.6 56 L 112.8 50.6 L 114.3 47.9 L 115.7 45.2 L 116.6 43.4 L 116.5 43.4 L 117 42.6 L 117 42.5 L 117.5 41.8 L 127 49.2 L 128.4 52.6 L 124.2 52.4 L 122.7 54 L 120.4 56.3 L 115.6 60.9 L 113.1 63.1 L 110.5 65.3 L 108 67.2 L 109.5 68.2 L 106.5 70 L 106.5 104.5 Z M 178.5 110 L 170.8 105.9 L 163.6 101.6 L 156.9 96.9 L 150.7 91.9 L 145 86.6 L 139.8 81 L 135.3 75.1 L 131.3 68.9 L 128 62.4 L 125.6 55.6 L 127.2 54.7 L 131.6 60.2 L 136.1 65.4 L 140.7 70.3 L 143.1 67.9 L 145.4 65.7 L 147.5 63.5 L 149.4 61.4 L 151.2 59.4 L 152.9 57.3 L 154.4 55.3 L 155.8 53.3 L 156.5 52.2 L 156.4 52.1 L 157.4 51 L 166.1 59.3 L 167 62.8 L 162.7 62 L 161.6 62.8 L 159.2 64.4 L 156.7 66 L 154 67.4 L 151.2 68.8 L 148.3 70.1 L 145.3 71.3 L 142.7 72.2 L 145.8 75.1 L 151.2 79.6 L 156.9 83.8 L 158.9 85 L 160.8 83.2 L 163.4 80.7 L 166 78.3 L 170.7 73.6 L 174.9 69.2 L 176.7 67 L 177.8 65.7 L 177.7 65.6 L 178.7 64.6 L 186.7 73.6 L 187.4 77.1 L 183.2 76 L 181.6 77.1 L 178.9 78.8 L 176 80.5 L 173 82.2 L 166.6 85.4 L 163.1 86.9 L 162.3 87.2 L 163.1 87.7 L 169.6 91.4 L 176.5 94.8 L 183.9 98 L 189.9 100.7 Z M 13.4 106.4 L 12.6 104.7 L 18.6 100.6 L 23.7 96.5 L 28.2 92.3 L 31.9 88 L 34.9 83.5 L 37.2 78.8 L 38.9 73.9 L 39.9 68.8 L 40.4 63.4 L 40.3 59.6 L 22.1 59.6 L 22.1 55.6 L 65.3 55.6 L 71.3 50.6 L 82.3 59.6 L 77.3 62.6 L 77.3 63.1 L 77.2 68.3 L 77 73 L 76.8 77.3 L 76.6 81.2 L 76.2 84.7 L 75.8 87.7 L 75.3 90.5 L 74.7 92.9 L 73.9 95.1 L 72.7 97.4 L 71.4 99.4 L 69.8 101.3 L 68 103 L 66.1 104.5 L 63.9 105.7 L 61.6 106.6 L 59.2 107.2 L 56.8 107.6 L 54.3 107.7 L 54.3 101.7 L 38.3 98.7 L 38.3 95.7 L 54.3 95.7 L 55.6 95.6 L 56.8 95.5 L 57.9 95.2 L 58.8 94.8 L 59.6 94.4 L 61 93.2 L 61.7 92.3 L 62.4 91.3 L 63 90.1 L 63.6 88 L 64 85.9 L 64.3 83.3 L 64.6 80.2 L 64.9 76.6 L 65.1 72.6 L 65.2 68 L 65.3 63 L 65.3 59.6 L 52 59.6 L 51.7 64.4 L 50.4 71 L 48.4 77.2 L 45.5 83 L 41.9 88.3 L 37.5 93 L 32.5 97.3 L 26.8 100.9 L 20.4 104 Z M 15 40.8 L 15 36.8 L 94.5 36.8 L 94.5 12 L 106.5 14 L 109.5 16 L 106.5 17.8 L 106.5 36.8 L 163.9 36.8 L 173.9 26.8 L 185.9 36.8 L 185.9 40.8 Z M 54.2 150.1 L 144.7 150.1 L 144.7 127.1 L 55.2 127.1 L 55.2 141.3 L 54.5 148.6 Z " />
</g>
</svg>
