<svg xmlns="http://www.w3.org/2000/svg" xmlns:xlink="http://www.w3.org/1999/xlink" version="1.1" baseProfile="full" viewBox="0 0 200 200" width="200" height="200">
<g fill="black">
<path d="M 144.7 189.1 L 144.7 151.5 L 54 151.5 L 53.2 155.7 L 51.1 162.1 L 48.4 167.9 L 44.9 173.2 L 40.8 177.8 L 36 181.7 L 30.7 184.9 L 24.8 187.2 L 18.3 188.8 L 17.7 187.1 L 23.1 183.8 L 27.8 180.3 L 31.8 176.6 L 35.1 172.7 L 37.9 168.5 L 40 163.9 L 41.6 158.9 L 42.7 153.5 L 43.2 147.7 L 43.2 106.5 L 55.2 108.5 L 58.2 110.5 L 55.2 112.3 L 55.2 122.8 L 144.7 122.8 L 144.7 106.5 L 156.7 108.5 L 159.7 110.5 L 156.7 112.3 L 156.7 183.1 Z M 16.1 111.1 L 15.6 109.3 L 24.2 105.5 L 32 101.3 L 39.1 96.9 L 45.3 92.2 L 50.8 87.1 L 54.9 82.3 L 51.1 83.8 L 46.9 82.1 L 46.5 81.1 L 45.8 80 L 44.8 78.8 L 43.6 77.5 L 42.2 76.2 L 40.5 74.8 L 38.7 73.4 L 36.6 71.9 L 34.7 70.6 L 34.6 70.7 L 30.7 74.2 L 26.5 77.4 L 22 80.4 L 17.2 83.1 L 16.1 81.7 L 19.6 77.6 L 22.9 73.6 L 26 69.7 L 28.9 65.8 L 31.6 61.9 L 33.9 58 L 36.1 54.1 L 37.9 50.1 L 39.6 46.2 L 40.9 42.1 L 41 42.1 L 41.3 41.2 L 19.2 41.2 L 19.2 37.2 L 94 37.2 L 94 12.1 L 106 14.1 L 109 16.1 L 106 17.9 L 106 37.2 L 158.7 37.2 L 168.7 27.2 L 180.7 37.2 L 180.7 41.2 L 42.2 41.2 L 52.1 46.5 L 54.2 49.5 L 50.3 50.1 L 49.9 50.9 L 47.4 55.2 L 47.3 55.3 L 67.1 55.3 L 73.1 50.3 L 84.1 59.3 L 79.1 62.3 L 77.4 63 L 76 67 L 72.3 74.5 L 67.8 81.4 L 62.5 87.7 L 56.5 93.3 L 49.8 98.3 L 42.4 102.6 L 34.3 106.2 L 25.6 109 Z M 174.6 110.4 L 170.3 107.2 L 166.5 103.4 L 163 99.2 L 160 94.6 L 157.5 89.6 L 155.9 90.5 L 151.6 92.7 L 147.2 94.8 L 142.8 96.7 L 138.4 98.5 L 134 100.2 L 125.2 103.4 L 120.4 105 L 119.1 108.8 L 116.4 106.4 L 111.5 95.3 L 113.4 94.8 L 117.9 94 L 125 92.6 L 125 54 L 135.4 59.2 L 139.3 57.4 L 143.4 55.6 L 151.4 52.4 L 155.2 50.8 L 158.8 49.3 L 162.4 47.9 L 165.8 46.4 L 168.2 45.4 L 168.2 45.3 L 168.3 45.4 L 169.2 45 L 169.7 46.6 L 179 54.4 L 179.2 57.5 L 175.1 55.7 L 172.8 56.4 L 169.2 57.2 L 165.5 58 L 161.6 58.7 L 157.7 59.5 L 153.8 60.2 L 155.5 64.5 L 157.9 70.4 L 160.3 75.8 L 162.9 80.7 L 165.6 85 L 168.4 88.8 L 171.4 92.1 L 174.6 94.8 L 177.9 97.1 L 181.3 99 L 185.8 101.6 Z M 94 109.7 L 94 77.9 L 89.2 81.9 L 84 85.8 L 78.4 89.5 L 72.5 92.8 L 71.4 91.4 L 76 86.5 L 80.4 81.8 L 84.7 77.1 L 88.7 72.5 L 92.4 67.9 L 95.9 63.3 L 99.1 58.6 L 102.1 53.9 L 104.8 49.2 L 106.8 45.3 L 106.7 45.3 L 107.8 43.5 L 117.7 50.3 L 119.4 53.5 L 115.5 53.6 L 114.5 55.2 L 110.9 60 L 107.1 64.7 L 106 65.9 L 106 103.7 Z M 137 90.3 L 140.6 89.6 L 150 87.8 L 154.8 87.1 L 156.3 86.9 L 155.2 84.1 L 153.5 78.2 L 152.2 72 L 151.4 65.4 L 151.3 60.6 L 149.3 60.9 L 145 61.5 L 140.5 62 L 137 62.3 Z M 55.8 81.1 L 59.5 75.8 L 62.7 69.6 L 65.4 62.9 L 66.4 59.3 L 44.6 59.3 L 41.5 63.3 L 38.2 67.1 L 37 68.3 L 37.9 68.4 L 43.1 69.2 L 45.4 69.7 L 47.6 70.3 L 49.7 71 L 51.7 71.7 L 53.6 72.6 L 55.4 73.6 L 57.1 77.9 Z M 54.6 147.5 L 144.7 147.5 L 144.7 126.8 L 55.2 126.8 L 55.2 141.3 Z " />
</g>
</svg>
