<svg xmlns="http://www.w3.org/2000/svg" xmlns:xlink="http://www.w3.org/1999/xlink" version="1.1" baseProfile="full" viewBox="0 0 200 200" width="200" height="200">
<g fill="black">
<path d="M 136.1 189.1 L 136.1 154.3 L 61.1 154.3 L 60.4 158 L 58.6 163.9 L 56.2 169.3 L 53.2 174.2 L 49.6 178.5 L 45.5 182.1 L 40.9 185 L 35.7 187.2 L 30.2 188.6 L 29.5 187 L 34 183.9 L 37.8 180.6 L 41.1 177.3 L 43.8 173.6 L 46 169.8 L 47.7 165.5 L 49 161 L 49.9 156 L 50.3 150.6 L 50.2 144.7 L 50.2 112.5 L 62.2 114.5 L 65.2 116.5 L 62.2 118.3 L 62.2 127.5 L 136.1 127.5 L 136.1 112.5 L 148.1 114.5 L 151.1 116.5 L 148.1 118.3 L 148.1 183.1 Z M 90 118 L 90 112 L 70 109 L 70 106 L 90 106 L 91.2 105.9 L 92.1 105.7 L 93 105.4 L 93.4 105 L 93.7 104.1 L 93.9 103.2 L 94 102 L 94 67 L 103.3 68.6 L 103.7 67.9 L 105.2 65.2 L 106.6 62.6 L 109.4 57.6 L 110.7 55.2 L 111.3 54 L 76 54 L 76 50 L 113 50 L 113.5 49.6 L 114 48.5 L 114.4 48.8 L 119 45 L 130 54 L 125 57 L 120.2 59 L 120.1 59.1 L 118.1 61 L 113.9 64.8 L 111.6 66.8 L 109.2 68.7 L 107.5 70 L 109 71 L 106 72.8 L 106 102 L 105.8 104.5 L 105.4 107 L 104.6 109.4 L 103.3 111.7 L 101.7 113.7 L 99.7 115.3 L 97.4 116.6 L 95 117.4 L 92.5 117.8 Z M 172.1 111.8 L 165.9 108.7 L 160.4 105.1 L 155.5 100.9 L 151.4 96.2 L 148 91.1 L 146.1 86.9 L 145.9 87.5 L 142.9 92.6 L 139.3 97.2 L 135 101.2 L 130.1 104.6 L 124.6 107.4 L 118.6 109.6 L 112 111.1 L 111.4 109.4 L 117.1 106.1 L 122 102.7 L 126.2 99.3 L 129.8 95.7 L 132.7 91.9 L 134.9 87.9 L 136.6 83.6 L 137.8 79.1 L 138.4 74.3 L 138.5 69.3 L 138.5 54.2 L 150.5 56.2 L 153.5 58.2 L 150.5 60 L 150.5 69.3 L 150.4 69.4 L 149.8 75.2 L 150.6 77.3 L 153 81.9 L 155.8 85.9 L 159.1 89.5 L 162.8 92.6 L 166.9 95.3 L 171.6 97.6 L 176.8 99.5 L 183.6 102.1 Z M 13.3 110.8 L 12.6 109.1 L 18.4 104.9 L 23.6 100.7 L 28 96.3 L 31.7 91.8 L 34.7 87.1 L 37 82.2 L 38.6 77.1 L 39.7 71.8 L 40.1 66.1 L 40 62 L 24 62 L 24 58 L 65 58 L 71 53 L 82 62 L 77 65 L 76.9 65 L 76.8 69.8 L 76.7 74.2 L 76.4 78.2 L 76.1 82 L 75.8 85.3 L 75.3 88.4 L 74.8 91.2 L 74.1 93.7 L 73.3 96 L 72.2 98.3 L 70.9 100.4 L 69.4 102.4 L 67.7 104.1 L 65.7 105.6 L 63.6 106.9 L 61.3 107.8 L 58.9 108.5 L 56.5 108.8 L 54 109 L 54 103 L 38 100 L 38 97 L 54 97 L 55.3 96.9 L 56.5 96.7 L 57.5 96.4 L 58.3 96.1 L 59.1 95.7 L 59.7 95.1 L 60.4 94.5 L 61 93.7 L 61.6 92.6 L 62.2 91.4 L 62.6 90.2 L 63.1 88.6 L 63.5 86.4 L 63.8 83.8 L 64.2 80.8 L 64.5 77.4 L 64.7 73.6 L 64.8 69.4 L 64.9 64.9 L 65 62 L 51.8 62 L 51.5 67 L 50.2 73.9 L 48.2 80.3 L 45.3 86.3 L 41.7 91.8 L 37.4 96.7 L 32.4 101.2 L 26.7 105 L 20.4 108.2 Z M 18.4 43.2 L 18.4 39.2 L 94 39.2 L 94 12.8 L 106 14.8 L 109 16.8 L 106 18.6 L 106 39.2 L 163.4 39.2 L 171.6 30.2 L 181.6 39.2 L 181.6 43.2 Z M 61.7 150.3 L 136.1 150.3 L 136.1 131.5 L 62.2 131.5 L 62.2 144.7 Z " />
</g>
</svg>
