<svg xmlns="http://www.w3.org/2000/svg" xmlns:xlink="http://www.w3.org/1999/xlink" version="1.1" baseProfile="full" viewBox="0 0 200 200" width="200" height="200">
<g fill="black">
<path d="M 140.5 188.6 L 140.5 150.7 L 65.2 150.7 L 64.2 155.4 L 61.7 161.9 L 58.5 167.9 L 54.4 173.1 L 49.6 177.6 L 44 181.5 L 37.7 184.5 L 30.8 186.8 L 23.3 188.3 L 22.8 186.5 L 29.5 183.3 L 35.3 179.8 L 40.2 176.1 L 44.4 172.1 L 47.8 167.8 L 50.4 163.2 L 52.4 158.3 L 53.7 152.9 L 54.4 147.1 L 54.4 109 L 66.4 111 L 69.4 113 L 66.4 114.8 L 66.4 122 L 140.5 122 L 140.5 109 L 152.5 111 L 155.5 113 L 152.5 114.8 L 152.5 182.6 Z M 94 108 L 94 65.6 L 89.8 66 L 86.2 63.2 L 85.6 61.1 L 84.8 59 L 83.9 56.9 L 83 54.7 L 80.8 50.3 L 79.5 48.1 L 78.2 45.8 L 76.9 43.4 L 75.1 41.3 L 76.3 40 L 78.5 41.6 L 81 43 L 83.3 44.6 L 85.5 46.2 L 87.7 47.9 L 89.7 49.7 L 91.6 51.5 L 93.4 53.4 L 95.2 55.4 L 96.8 57.5 L 97.2 62 L 96.1 63.4 L 103 64.5 L 104.1 62.7 L 107.5 57.1 L 109.1 54.4 L 110.7 51.8 L 112.3 49.1 L 115.1 43.9 L 116 42.2 L 115.9 42.2 L 116.9 40.7 L 126.3 48.2 L 127.6 51.5 L 123.4 51.3 L 122 52.8 L 119.8 55 L 115 59.4 L 112.5 61.5 L 109.9 63.6 L 107.2 65.6 L 107 65.7 L 109 67 L 106 68.8 L 106 102 Z M 169.8 106.8 L 163.8 102.9 L 158.2 98.8 L 152.9 94.4 L 148 89.7 L 143.5 84.7 L 139.3 79.4 L 135.6 73.8 L 132.4 67.9 L 129.6 61.8 L 127.6 55.2 L 129.2 54.5 L 133.3 59.7 L 137.3 64.7 L 141.4 69.5 L 145.7 74 L 148 76.1 L 149.4 74.4 L 151.9 71.5 L 159.4 63.1 L 161.9 60.4 L 164.3 57.6 L 168.4 52.9 L 168.8 52.6 L 169.1 52.2 L 169.4 52 L 177.3 61 L 177.9 64.6 L 173.9 63.5 L 171.4 65.4 L 165.2 69.8 L 162.1 71.9 L 158.9 73.9 L 155.7 76 L 152.3 77.9 L 150.8 78.7 L 154.9 82.1 L 159.8 85.8 L 165 89.1 L 170.4 92.3 L 176.1 95.1 L 181.1 97.8 Z M 16.5 103.7 L 15.4 102.2 L 20.1 97.4 L 24.2 92.7 L 27.9 88.1 L 31 83.5 L 33.6 79 L 35.7 74.4 L 37.2 69.8 L 38.3 65.2 L 38.8 60.5 L 38.9 58 L 19 58 L 19 54 L 64 54 L 70 49 L 81 58 L 76 61 L 75.9 61 L 75.9 61.4 L 75.8 66.4 L 75.7 71 L 75.5 75.2 L 75.2 78.9 L 74.9 82.3 L 74.5 85.3 L 74 87.9 L 73.4 90.2 L 72.6 92.4 L 71.4 94.7 L 70.1 96.7 L 68.5 98.6 L 66.7 100.3 L 64.7 101.7 L 62.6 102.9 L 60.3 103.8 L 57.9 104.5 L 55.5 104.8 L 53 105 L 53 99 L 37 96 L 37 93 L 53 93 L 54.3 92.9 L 55.5 92.7 L 56.6 92.4 L 57.5 92.1 L 58.3 91.6 L 59 91.1 L 59.7 90.4 L 60.4 89.6 L 61.1 88.6 L 61.7 87.4 L 62 86.7 L 62.3 85.4 L 62.7 83.4 L 63 80.9 L 63.3 77.9 L 63.5 74.5 L 63.7 70.5 L 63.8 66.1 L 63.9 61.3 L 64 58 L 50.7 58 L 50.1 62.1 L 48.7 67.8 L 46.6 73.2 L 44 78.5 L 40.8 83.4 L 37.1 88.1 L 32.8 92.5 L 27.9 96.6 L 22.5 100.3 Z M 15 39.7 L 15 35.7 L 94 35.7 L 94 11.8 L 106 13.8 L 109 15.8 L 106 17.6 L 106 35.7 L 163 35.7 L 173 25.7 L 185 35.7 L 185 39.7 Z M 65.8 146.7 L 140.5 146.7 L 140.5 126 L 66.4 126 L 66.4 140.8 Z " />
</g>
</svg>
