<svg xmlns="http://www.w3.org/2000/svg" xmlns:xlink="http://www.w3.org/1999/xlink" version="1.1" baseProfile="full" viewBox="0 0 200 200" width="200" height="200">
<g fill="black">
<path d="M 140 189 L 140 163 L 56.3 163 L 56.2 163.4 L 53.7 168.7 L 50.5 173.5 L 46.8 177.8 L 42.4 181.5 L 37.6 184.6 L 32.2 187 L 26.3 188.8 L 25.6 187.1 L 30.4 183.7 L 34.5 180.2 L 38 176.6 L 41 172.8 L 43.4 168.9 L 45.3 164.7 L 46.7 160.3 L 47.6 155.5 L 48 150.4 L 48 108 L 60 114 L 140 114 L 146 109 L 157 118 L 152 122 L 152 183 Z M 60 137 L 140 137 L 140 118 L 60 118 Z M 175.2 106.9 L 170.1 103.9 L 165.5 100.4 L 161.3 96.4 L 157.6 92 L 154.4 87.1 L 154.2 86.7 L 151 88.2 L 145.9 90.3 L 140.7 92.2 L 130.5 95.8 L 120.3 99 L 115.3 100.6 L 110.2 102.1 L 109.2 102.4 L 107.9 106 L 105.3 103.6 L 100.6 92.3 L 102.6 91.9 L 112.8 90.1 L 116 89.6 L 116 53 L 126.4 58.2 L 131.9 56 L 136.8 54.3 L 141.6 52.7 L 146.3 51.2 L 150.8 49.7 L 155.2 48.3 L 159.5 46.9 L 163.6 45.6 L 166.6 44.6 L 167.6 44.3 L 167.9 45.7 L 178.2 54.2 L 178.5 57.2 L 174.2 55.1 L 170.4 56 L 166.2 56.7 L 161.9 57.3 L 157.5 58 L 152.9 58.7 L 149.1 59.2 L 150.7 62.8 L 153.3 68.3 L 156.1 73.3 L 159 77.8 L 162.1 81.8 L 165.4 85.3 L 168.9 88.3 L 172.6 90.9 L 176.5 93.1 L 180.7 95 L 186.6 97.6 Z M 13.3 103.8 L 12.6 102.1 L 20.1 98.1 L 26.7 94 L 32.3 89.8 L 37 85.5 L 40.7 81.2 L 43.6 76.7 L 45.6 72.1 L 46.8 67.4 L 47.2 62.5 L 47.1 59 L 23 59 L 23 55 L 79 55 L 85 50 L 96 59 L 91 62 L 90.9 62 L 90.9 62.4 L 90.8 67.5 L 90.5 72.2 L 90.2 76.5 L 89.8 80.4 L 89.3 83.9 L 88.6 87.1 L 87.8 90 L 86.8 92.6 L 85.5 95 L 84 97 L 82.4 98.8 L 80.6 100.5 L 78.7 101.9 L 76.7 103.2 L 74.5 104.2 L 72.2 105 L 69.9 105.5 L 67.4 105.8 L 65 106 L 65 100 L 47 97 L 47 94 L 65 94 L 66.4 93.9 L 67.7 93.7 L 68.9 93.4 L 70 93.1 L 71 92.6 L 72 92 L 72.9 91.3 L 73.8 90.5 L 74.7 89.5 L 75.5 88.3 L 75.9 87.6 L 76.4 86.2 L 76.9 84.3 L 77.4 81.8 L 77.9 78.9 L 78.3 75.4 L 78.6 71.5 L 78.8 67.1 L 78.9 62.2 L 79 59 L 58.8 59 L 58.6 63.5 L 57.2 70 L 54.8 76.1 L 51.4 81.7 L 47.2 86.7 L 42 91.2 L 36.1 95.2 L 29.3 98.7 L 21.7 101.5 Z M 128 87.6 L 128.4 87.5 L 133.8 86.7 L 139.1 85.9 L 144.6 85.1 L 150.1 84.5 L 152.9 84.3 L 151.7 81.9 L 149.5 76.3 L 147.8 70.3 L 146.7 63.9 L 146.4 59.6 L 143.3 60 L 138.2 60.6 L 133 61.2 L 128 61.6 Z M 19.2 40.5 L 19.2 36.5 L 94 36.5 L 94 12.7 L 106 14.7 L 109 16.7 L 106 18.5 L 106 36.5 L 158.7 36.5 L 168.7 26.5 L 180.7 36.5 L 180.7 40.5 Z M 57.7 159 L 140 159 L 140 141 L 60 141 L 60 145 L 59.3 151.5 L 58.1 157.7 Z " />
</g>
</svg>
